<?xml version="1.0" ?><!DOCTYPE svg  PUBLIC '-//W3C//DTD SVG 1.1//EN'  'http://www.w3.org/Graphics/SVG/1.1/DTD/svg11.dtd'><svg height="32px" id="_x3C_Layer_x3E_" style="enable-background:new 0 0 32 32;" version="1.1" viewBox="0 0 32 32" width="32px" xml:space="preserve" xmlns="http://www.w3.org/2000/svg" xmlns:xlink="http://www.w3.org/1999/xlink"><style type="text/css">
<![CDATA[
	.st0{fill:#E67C73;}
	.st1{fill:#E6D96A;}
	.st2{fill:#80D8FF;}
	.st3{fill:#1AD2A4;}
	.st4{fill:#1DE9B6;}
	.st5{fill:#ECEFF1;}
	.st6{fill:#607D8B;stroke:#455A64;stroke-linecap:round;stroke-linejoin:round;stroke-miterlimit:10;}
	.st7{fill:#F48FB1;}
	.st8{fill:#607D8B;}
	.st9{fill:#FF8A80;}
	.st10{fill:#FFB74D;}
	.st11{fill:#FFF176;}
	.st12{fill:#FFFFFF;}
	.st13{fill:#65F0CD;}
	.st14{fill:#CFD8DC;}
	.st15{fill:#A18DC5;}
	.st16{fill:#73C2E6;}
	.st17{fill:#78909C;}
	.st18{fill:#A9E4FF;}
	.st19{fill:#455A64;}
]]>
</style><g id="medium"><g><g><path class="st6" d="M29.447,22.729c-0.387-0.4-1.05-2.653-1.052-6.715c-0.002-4.084,0.664-6.349,1.052-6.747     c0.407,0.417,1.055,2.841,1.053,6.746C30.498,20.077,29.834,22.33,29.447,22.729z"/></g><g><path class="st6" d="M23.016,23.569c-2.087-0.001-3.854-3.459-3.859-7.553c-0.003-2.849,0.815-5.439,2.134-6.761     c0.546-0.548,1.127-0.825,1.726-0.825c0.975,0.001,1.916,0.749,2.648,2.106c0.785,1.455,1.215,3.4,1.212,5.479     C26.87,20.106,25.103,23.565,23.016,23.569z"/></g><g><path class="st6" d="M9.5,24.001c-4.402,0-7.991-3.582-8-7.983c-0.004-2.146,0.821-4.16,2.326-5.668     c1.513-1.516,3.528-2.351,5.675-2.351C11.647,8,13.66,8.835,15.17,10.35c1.509,1.514,2.337,3.525,2.332,5.667     C17.49,20.415,13.9,23.997,9.5,24.001L9.5,24.001z"/></g></g></g></svg>